HIERARCHY
ROOT Hips
{
	OFFSET 0.000000 97.167313 0.000000
	CHANNELS 6 Xposition Yposition Zposition Xrotation Yrotation Zrotation
	JOINT Spine
	{
		OFFSET 0.000000 13.784798 0.064400
		CHANNELS 3 Xrotation Yrotation Zrotation
		JOINT Spine1
		{
			OFFSET 0.000000 12.037903 0.404700
			CHANNELS 3 Xrotation Yrotation Zrotation
			JOINT Spine2
			{
				OFFSET 0.000000 17.795601 0.420200
				CHANNELS 3 Xrotation Yrotation Zrotation
				JOINT Neck
				{
					OFFSET 0.000000 39.131302 11.954600
					CHANNELS 3 Xrotation Yrotation Zrotation
					JOINT Head
					{
						OFFSET 0.000000 14.456192 15.627699
						CHANNELS 3 Xrotation Yrotation Zrotation
						JOINT HeadTop_End
						{
							OFFSET 0.000000 15.703506 7.603401
							CHANNELS 3 Xrotation Yrotation Zrotation
							End Site
							{
								OFFSET 0.000000 17.447403 0.000000
							}
						}
					}
				}
				JOINT LeftShoulder
				{
					OFFSET 17.399500 24.608795 1.168800
					CHANNELS 3 Xrotation Yrotation Zrotation
					JOINT LeftArm
					{
						OFFSET 18.980635 5.765305 1.818600
						CHANNELS 3 Xrotation Yrotation Zrotation
						JOINT LeftForeArm
						{
							OFFSET 49.290169 0.000000 0.000000
							CHANNELS 3 Xrotation Yrotation Zrotation
							JOINT LeftHand
							{
								OFFSET 31.562012 0.000000 0.000000
								CHANNELS 3 Xrotation Yrotation Zrotation
								JOINT LeftHandThumb1
								{
									OFFSET 6.133995 -4.388519 7.076070
									CHANNELS 3 Xrotation Yrotation Zrotation
									JOINT LeftHandThumb2
									{
										OFFSET 6.037666 -3.485840 3.485847
										CHANNELS 3 Xrotation Yrotation Zrotation
										JOINT LeftHandThumb3
										{
											OFFSET 6.496506 -3.750763 3.750761
											CHANNELS 3 Xrotation Yrotation Zrotation
											JOINT LeftHandThumb4
											{
												OFFSET 5.616882 -3.242905 3.242910
												CHANNELS 3 Xrotation Yrotation Zrotation
												End Site
												{
													OFFSET -1.254608 7.132141 0.375429
												}
											}
										}
									}
								}
								JOINT LeftHandPinky1
								{
									OFFSET 18.920792 -0.453171 -11.426712
									CHANNELS 3 Xrotation Yrotation Zrotation
									JOINT LeftHandPinky2
									{
										OFFSET 4.919586 0.000000 0.000000
										CHANNELS 3 Xrotation Yrotation Zrotation
										JOINT LeftHandPinky3
										{
											OFFSET 5.233047 0.000000 0.000000
											CHANNELS 3 Xrotation Yrotation Zrotation
											JOINT LeftHandPinky4
											{
												OFFSET 5.571716 0.000000 0.000000
												CHANNELS 3 Xrotation Yrotation Zrotation
												End Site
												{
													OFFSET -3.459808 4.342407 -0.466164
												}
											}
										}
									}
								}
								JOINT LeftHandRing1
								{
									OFFSET 22.726120 -0.094986 -6.500475
									CHANNELS 3 Xrotation Yrotation Zrotation
									JOINT LeftHandRing2
									{
										OFFSET 6.408615 0.000000 0.000000
										CHANNELS 3 Xrotation Yrotation Zrotation
										JOINT LeftHandRing3
										{
											OFFSET 6.150223 0.000000 0.000000
											CHANNELS 3 Xrotation Yrotation Zrotation
											JOINT LeftHandRing4
											{
												OFFSET 6.145386 0.000000 0.000000
												CHANNELS 3 Xrotation Yrotation Zrotation
												End Site
												{
													OFFSET -3.671402 4.923981 -0.202372
												}
											}
										}
									}
								}
								JOINT LeftHandMiddle1
								{
									OFFSET 23.373947 0.000000 0.000001
									CHANNELS 3 Xrotation Yrotation Zrotation
									JOINT LeftHandMiddle2
									{
										OFFSET 6.996567 0.000000 0.000000
										CHANNELS 3 Xrotation Yrotation Zrotation
										JOINT LeftHandMiddle3
										{
											OFFSET 7.015945 0.000000 0.000000
											CHANNELS 3 Xrotation Yrotation Zrotation
											JOINT LeftHandMiddle4
											{
												OFFSET 7.721573 0.000000 0.000000
												CHANNELS 3 Xrotation Yrotation Zrotation
												End Site
												{
													OFFSET -4.651108 6.158463 0.251582
												}
											}
										}
									}
								}
								JOINT LeftHandIndex1
								{
									OFFSET 21.310577 -0.490082 6.209344
									CHANNELS 3 Xrotation Yrotation Zrotation
									JOINT LeftHandIndex2
									{
										OFFSET 7.536453 0.000000 0.000000
										CHANNELS 3 Xrotation Yrotation Zrotation
										JOINT LeftHandIndex3
										{
											OFFSET 7.512344 0.000000 0.000000
											CHANNELS 3 Xrotation Yrotation Zrotation
											JOINT LeftHandIndex4
											{
												OFFSET 10.212402 0.000000 0.000001
												CHANNELS 3 Xrotation Yrotation Zrotation
												End Site
												{
													OFFSET -5.180801 8.690506 1.388433
												}
											}
										}
									}
								}
							}
						}
					}
				}
				JOINT RightShoulder
				{
					OFFSET -17.399500 24.608795 1.168800
					CHANNELS 3 Xrotation Yrotation Zrotation
					JOINT RightArm
					{
						OFFSET -18.980635 5.765305 1.818600
						CHANNELS 3 Xrotation Yrotation Zrotation
						JOINT RightForeArm
						{
							OFFSET -49.290169 0.000000 0.000000
							CHANNELS 3 Xrotation Yrotation Zrotation
							JOINT RightHand
							{
								OFFSET -31.562012 0.000000 0.000000
								CHANNELS 3 Xrotation Yrotation Zrotation
								JOINT RightHandThumb1
								{
									OFFSET -6.133995 -4.388519 7.076070
									CHANNELS 3 Xrotation Yrotation Zrotation
									JOINT RightHandThumb2
									{
										OFFSET -6.037666 -3.485840 3.485847
										CHANNELS 3 Xrotation Yrotation Zrotation
										JOINT RightHandThumb3
										{
											OFFSET -6.496506 -3.750763 3.750761
											CHANNELS 3 Xrotation Yrotation Zrotation
											JOINT RightHandThumb4
											{
												OFFSET -5.616882 -3.242905 3.242910
												CHANNELS 3 Xrotation Yrotation Zrotation
												End Site
												{
													OFFSET 1.254608 7.132141 0.375429
												}
											}
										}
									}
								}
								JOINT RightHandIndex1
								{
									OFFSET -21.310577 -0.490082 6.209344
									CHANNELS 3 Xrotation Yrotation Zrotation
									JOINT RightHandIndex2
									{
										OFFSET -7.536453 0.000000 0.000000
										CHANNELS 3 Xrotation Yrotation Zrotation
										JOINT RightHandIndex3
										{
											OFFSET -7.512344 0.000000 0.000000
											CHANNELS 3 Xrotation Yrotation Zrotation
											JOINT RightHandIndex4
											{
												OFFSET -10.212402 0.000000 0.000001
												CHANNELS 3 Xrotation Yrotation Zrotation
												End Site
												{
													OFFSET 5.180801 8.690506 1.388433
												}
											}
										}
									}
								}
								JOINT RightHandMiddle1
								{
									OFFSET -23.373947 0.000000 0.000001
									CHANNELS 3 Xrotation Yrotation Zrotation
									JOINT RightHandMiddle2
									{
										OFFSET -6.996567 0.000000 0.000000
										CHANNELS 3 Xrotation Yrotation Zrotation
										JOINT RightHandMiddle3
										{
											OFFSET -7.015945 0.000000 0.000000
											CHANNELS 3 Xrotation Yrotation Zrotation
											JOINT RightHandMiddle4
											{
												OFFSET -7.721573 0.000000 0.000000
												CHANNELS 3 Xrotation Yrotation Zrotation
												End Site
												{
													OFFSET 4.651108 6.158463 0.251582
												}
											}
										}
									}
								}
								JOINT RightHandRing1
								{
									OFFSET -22.726120 -0.094986 -6.500475
									CHANNELS 3 Xrotation Yrotation Zrotation
									JOINT RightHandRing2
									{
										OFFSET -6.408615 0.000000 0.000000
										CHANNELS 3 Xrotation Yrotation Zrotation
										JOINT RightHandRing3
										{
											OFFSET -6.150223 0.000000 0.000000
											CHANNELS 3 Xrotation Yrotation Zrotation
											JOINT RightHandRing4
											{
												OFFSET -6.145386 0.000000 0.000000
												CHANNELS 3 Xrotation Yrotation Zrotation
												End Site
												{
													OFFSET 3.671402 4.923981 -0.202372
												}
											}
										}
									}
								}
								JOINT RightHandPinky1
								{
									OFFSET -18.920792 -0.453171 -11.426712
									CHANNELS 3 Xrotation Yrotation Zrotation
									JOINT RightHandPinky2
									{
										OFFSET -4.919586 0.000000 0.000000
										CHANNELS 3 Xrotation Yrotation Zrotation
										JOINT RightHandPinky3
										{
											OFFSET -5.233047 0.000000 0.000000
											CHANNELS 3 Xrotation Yrotation Zrotation
											JOINT RightHandPinky4
											{
												OFFSET -5.571716 0.000000 0.000000
												CHANNELS 3 Xrotation Yrotation Zrotation
												End Site
												{
													OFFSET 3.459808 4.342407 -0.466164
												}
											}
										}
									}
								}
							}
						}
					}
				}
			}
		}
	}
	JOINT LeftUpLeg
	{
		OFFSET 19.899099 -7.885101 -3.429500
		CHANNELS 3 Xrotation Yrotation Zrotation
		JOINT LeftLeg
		{
			OFFSET 1.745560 -36.997807 10.304700
			CHANNELS 3 Xrotation Yrotation Zrotation
			JOINT LeftFoot
			{
				OFFSET -1.745558 -29.803308 -13.615400
				CHANNELS 3 Xrotation Yrotation Zrotation
				JOINT LeftToeBase
				{
					OFFSET 1.181900 -18.539904 15.226099
					CHANNELS 3 Xrotation Yrotation Zrotation
					JOINT LeftToe_End
					{
						OFFSET -0.863701 1.402801 16.534700
						CHANNELS 3 Xrotation Yrotation Zrotation
						End Site
						{
							OFFSET 0.000000 16.616566 0.000000
						}
					}
				}
			}
		}
	}
	JOINT RightUpLeg
	{
		OFFSET -19.899099 -7.885101 -3.429500
		CHANNELS 3 Xrotation Yrotation Zrotation
		JOINT RightLeg
		{
			OFFSET -1.745560 -36.997807 10.304700
			CHANNELS 3 Xrotation Yrotation Zrotation
			JOINT RightFoot
			{
				OFFSET 1.745558 -29.803308 -13.615400
				CHANNELS 3 Xrotation Yrotation Zrotation
				JOINT RightToeBase
				{
					OFFSET -1.181900 -18.539904 15.226099
					CHANNELS 3 Xrotation Yrotation Zrotation
					JOINT RightToe_End
					{
						OFFSET 0.863701 1.402801 16.534700
						CHANNELS 3 Xrotation Yrotation Zrotation
						End Site
						{
							OFFSET 0.000000 16.616566 0.000000
						}
					}
				}
			}
		}
	}
}
MOTION
Frames: 4
Frame Time: 0.033333
1.499153 62.043793 2.072712 18.897363 -11.257934 -2.804060 11.273507 16.550166 -10.272178 2.869501 4.087945 -0.126405 2.861622 4.312288 -0.311445 -0.688871 -2.356461 4.369678 -6.951124 -9.322001 11.106343 0.000000 -0.000000 -0.000000 1.124703 -1.331173 -15.116527 -9.590819 31.513216 -40.008386 0.000004 -10.721311 0.000005 15.668203 -19.583469 20.990283 -5.456072 -6.701762 3.224284 8.096000 27.602948 1.093753 -10.028697 -14.015508 7.736803 -0.000001 0.000003 -0.000001 0.229228 4.355129 -33.121175 0.780430 2.923313 -29.888679 0.780013 2.922616 -29.880852 -0.000001 0.000003 -0.000004 0.028224 3.645204 -26.113060 0.502174 2.375013 -23.874320 0.587681 2.559325 -25.860503 0.000001 0.000001 0.000002 -1.264335 -0.680477 -18.650031 0.387938 2.098231 -20.947873 0.466476 2.292742 -22.997828 -0.000002 0.000000 0.000004 -1.866390 -6.065085 -12.588947 0.237184 1.651694 -16.342781 0.247260 1.685649 -16.688894 -0.000000 0.000000 -0.000002 2.870344 11.957091 -6.152310 -33.803672 70.877570 6.927821 0.000093 94.709561 -0.000030 17.111796 20.467032 -11.105437 -15.344910 26.909743 4.028140 9.858243 -45.621135 -5.478671 -7.110592 3.091128 -14.184599 -0.000003 0.000000 -0.000000 0.555102 -4.792298 13.847716 0.169907 -1.247748 15.507864 0.169801 -1.247378 15.503215 -0.000000 -0.000003 -0.000001 1.576764 -6.016273 32.822269 0.816452 -2.636004 34.413638 0.910238 -2.767797 36.402808 0.000002 0.000001 -0.000004 2.347854 -6.542673 43.827401 1.218024 -3.142180 42.367875 1.329187 -3.259699 44.358452 -0.000001 -0.000000 -0.000003 3.146663 -6.893207 54.105535 1.765782 -3.652475 51.591451 1.765231 -3.652018 51.582678 0.000001 -0.000004 0.000005 -94.121298 0.172029 -0.296947 43.529936 13.043613 1.358597 23.739344 25.542017 13.531561 -5.601740 -0.000008 0.000007 0.000001 -0.000003 -0.000000 27.769235 -6.647752 6.335870 25.387350 1.969677 11.204905 -31.392349 -14.530203 9.746498 -43.010657 -0.000001 -0.000007 -0.000000 0.000000 0.000000 
-0.161868 62.447098 5.198761 24.138860 -8.442495 -1.495633 10.039885 14.021132 -10.292321 3.554349 4.222118 -1.680951 3.533569 4.420977 -1.828963 -1.012377 -2.307549 3.349429 -6.962083 -10.290500 11.080320 -0.000002 0.000000 0.000000 0.625421 -3.318923 -18.238564 -14.161741 31.649642 -33.311888 0.000000 -13.500180 -0.000008 12.358930 -12.590099 18.536348 -6.451035 -8.901131 2.688097 8.339124 29.027413 1.557852 -9.807915 -12.919178 8.474997 0.000001 0.000005 -0.000002 0.514003 4.841091 -34.745483 0.867437 3.069565 -31.553360 0.862459 3.061441 -31.460138 -0.000002 -0.000001 -0.000006 0.240911 4.133595 -27.501017 0.561759 2.505193 -25.273667 0.648707 2.681442 -27.195221 -0.000000 -0.000002 0.000007 -1.007236 0.369432 -19.802716 0.421973 2.184981 -21.858526 0.499166 2.368235 -23.801823 -0.000002 0.000000 0.000004 -1.326354 -4.488214 -12.406391 0.220197 1.592640 -15.742732 0.227668 1.618877 -16.009373 -0.000002 0.000001 -0.000001 2.926226 13.157846 -7.428717 -20.737909 70.322501 -5.129172 -0.000401 93.939499 0.000464 21.151238 19.929802 -14.109832 -13.815582 24.214585 2.553438 9.329791 -40.979219 -5.080541 -6.861224 1.813827 -14.280582 -0.000001 -0.000002 0.000004 0.436593 -4.458171 12.142571 0.123318 -1.065739 13.200637 0.123253 -1.065422 13.196684 0.000001 0.000002 0.000001 1.188457 -5.569211 28.279720 0.596445 -2.282197 29.289248 0.665590 -2.401222 30.981663 0.000001 -0.000001 -0.000004 1.770237 -6.095587 37.636005 0.893564 -2.745054 36.056149 0.976292 -2.855081 37.749407 0.000001 0.000001 -0.000003 2.384258 -6.495541 46.373866 1.303293 -3.233084 43.901526 1.302883 -3.232639 43.894054 0.000002 -0.000000 0.000002 -97.573098 1.178043 -1.914594 45.275500 11.570955 1.305257 21.349332 25.358749 11.966912 -5.601748 -0.000012 -0.000006 -0.000000 -0.000001 -0.000000 22.973830 -8.121760 7.430016 22.783952 3.093772 10.988705 -21.989108 -14.161734 9.540142 -47.895776 -0.086874 1.803004 -0.000000 -0.000000 -0.000000 
-1.795437 62.783745 8.286419 29.305142 -5.492405 -0.476891 8.757455 11.363837 -10.374167 4.294895 4.397741 -3.381061 4.265883 4.570715 -3.489629 -1.356240 -2.266663 2.258074 -6.988061 -11.402605 11.094304 0.000002 -0.000000 -0.000000 0.220602 -4.719673 -21.659730 -19.537044 29.156882 -26.504819 0.000010 -17.538770 0.000007 12.226636 -5.201346 16.198507 -7.657934 -11.424641 2.036104 8.578150 30.643873 2.101873 -9.541439 -11.602414 9.338119 -0.000001 -0.000001 0.000001 0.875472 5.388248 -36.598346 0.971316 3.232390 -33.443010 0.958040 3.212224 -33.206795 -0.000000 0.000001 -0.000004 0.509965 4.680192 -29.037033 0.631127 2.646981 -26.816890 0.719487 2.814776 -28.671242 -0.000006 -0.000001 0.000005 -0.656368 1.563003 -21.066511 0.459238 2.275648 -22.816332 0.535233 2.448270 -24.659860 -0.000002 -0.000000 0.000004 -0.792406 -2.655703 -12.148158 0.201167 1.523528 -15.042826 0.205892 1.540980 -15.219383 -0.000003 -0.000000 0.000001 2.805528 14.199568 -6.667454 -9.794124 67.987908 -15.266349 -0.000342 91.829824 0.000408 25.846786 19.572913 -18.554938 -12.206559 21.085351 1.008330 8.743337 -35.673002 -4.576026 -6.584520 0.351693 -14.382519 -0.000004 -0.000001 0.000002 0.321170 -4.070490 10.195018 0.079090 -0.855544 10.562825 0.079041 -0.855285 10.559664 0.000001 0.000002 -0.000001 0.808777 -5.013461 23.094977 0.384840 -1.855490 23.433044 0.429853 -1.956018 24.786553 0.000001 0.000001 -0.000008 1.197714 -5.496294 30.570841 0.578855 -2.250574 28.844490 0.633161 -2.346399 30.198401 0.000001 -0.000000 -0.000003 1.614788 -5.897579 37.551007 0.849081 -2.682985 35.116933 0.848806 -2.682575 35.110967 -0.000000 -0.000001 0.000000 -100.734075 2.096647 -3.437754 46.702583 10.138486 1.214898 19.026272 25.196629 10.350541 -5.601748 -0.000011 -0.000003 0.000000 0.000001 0.000000 15.998149 -10.440898 8.901435 22.318441 5.586923 10.669440 -12.455676 -11.892398 5.485223 -58.892405 -0.168373 0.990934 -0.000000 -0.000001 -0.000000 
-3.338243 63.056625 11.219612 33.905667 -2.937668 0.075399 7.507190 8.916615 -10.349063 5.003815 4.524096 -4.936784 4.973252 4.671609 -5.008005 -1.684047 -2.216914 1.237869 -7.002464 -12.377626 11.074303 -0.000003 0.000001 -0.000000 0.218336 -4.299041 -24.326882 -24.504046 24.547133 -21.593025 0.000001 -22.686620 0.000010 14.428776 0.730806 13.988740 -9.023076 -14.143440 1.257449 8.804390 32.476344 2.698465 -9.265853 -10.232535 10.240729 -0.000000 0.000003 -0.000002 1.306456 5.964104 -38.786558 1.099908 3.418804 -35.659383 1.075308 3.384326 -35.244770 -0.000001 -0.000000 -0.000000 0.830187 5.257212 -30.812483 0.715921 2.808295 -28.598917 0.806548 2.968250 -30.396948 -0.000003 0.000004 0.000000 -0.230811 2.810556 -22.505417 0.504521 2.380338 -23.931258 0.580311 2.544082 -25.694827 -0.000001 -0.000001 0.000004 -0.328314 -0.708231 -11.908836 0.183978 1.458105 -14.382254 0.186090 1.466305 -14.464913 0.000001 0.000001 0.000001 2.717342 13.511784 -8.457115 -13.488859 67.365965 -9.601853 0.000222 87.392591 -0.000193 28.855620 21.597038 -22.158170 -10.670769 17.778182 -0.459576 8.139391 -30.147127 -4.001335 -6.305438 -1.173363 -14.480262 -0.000000 0.000000 -0.000003 0.223926 -3.661234 8.168274 0.043349 -0.634640 7.815039 0.043323 -0.634444 7.812698 -0.000002 -0.000003 -0.000002 0.490962 -4.392422 17.703466 0.211971 -1.390432 17.335047 0.236935 -1.468005 18.336005 0.000002 0.000001 -0.000006 0.713910 -4.787980 23.226600 0.319846 -1.697748 21.336657 0.350166 -1.773362 22.337702 -0.000003 0.000001 -0.000003 0.955517 -5.136006 28.381714 0.471286 -2.043291 25.973891 0.471128 -2.042970 25.969464 -0.000000 -0.000000 0.000006 -103.425737 2.603108 -4.501252 48.202578 8.924386 1.101797 16.667070 24.987648 8.680493 -5.601736 -0.000008 0.000002 0.000001 0.000001 -0.000000 10.228861 -12.505957 10.921543 20.663733 7.446951 10.148954 -3.170405 -8.837385 -0.267911 -68.133931 0.274211 -0.707665 -0.000000 0.000000 -0.000000 
